HIERARCHY
ROOT Hips
{
	OFFSET 0.000000 0.000000 0.000000
	CHANNELS 6 Xposition Yposition Zposition Xrotation Yrotation Zrotation
	JOINT LeftUpLeg_virtual
	{
		OFFSET 0.000000 0.000000 0.000000
		CHANNELS 3 Xrotation Yrotation Zrotation
		JOINT LeftUpLeg
		{
			OFFSET 13.026900 -6.336304 -1.092800
			CHANNELS 3 Xrotation Yrotation Zrotation
			JOINT LeftLeg
			{
				OFFSET 0.524474 -46.096886 9.782700
				CHANNELS 3 Xrotation Yrotation Zrotation
				JOINT LeftFoot
				{
					OFFSET -0.524474 -53.427422 -12.948200
					CHANNELS 3 Xrotation Yrotation Zrotation
					JOINT LeftToeBase
					{
						OFFSET 0.192200 -14.009700 16.364100
						CHANNELS 3 Xrotation Yrotation Zrotation
						JOINT LeftToe_End
						{
							OFFSET -1.784700 -0.561700 9.474800
							CHANNELS 3 Xrotation Yrotation Zrotation
							End Site
							{
								OFFSET 0 0 0
							}
						}
					}
				}
			}
		}
	}
	JOINT RightUpLeg_virtual
	{
		OFFSET 0.000000 0.000000 0.000000
		CHANNELS 3 Xrotation Yrotation Zrotation
		JOINT RightUpLeg
		{
			OFFSET -12.883000 -6.336304 -1.092800
			CHANNELS 3 Xrotation Yrotation Zrotation
			JOINT RightLeg
			{
				OFFSET -0.524587 -46.096825 9.782800
				CHANNELS 3 Xrotation Yrotation Zrotation
				JOINT RightFoot
				{
					OFFSET 0.524587 -53.427383 -12.948300
					CHANNELS 3 Xrotation Yrotation Zrotation
					JOINT RightToeBase
					{
						OFFSET -0.192200 -14.009700 16.364100
						CHANNELS 3 Xrotation Yrotation Zrotation
						JOINT RightToe_End
						{
							OFFSET 1.784700 -0.561700 9.474800
							CHANNELS 3 Xrotation Yrotation Zrotation
							End Site
							{
								OFFSET 0 0 0
							}
						}
					}
				}
			}
		}
	}
	JOINT Spine_virtual
	{
		OFFSET 0.000000 0.000000 0.000000
		CHANNELS 3 Xrotation Yrotation Zrotation
		JOINT Spine
		{
			OFFSET 0.072000 7.257294 -0.789700
			CHANNELS 3 Xrotation Yrotation Zrotation
			JOINT Spine1
			{
				OFFSET 0.000000 12.508769 -0.658067
				CHANNELS 3 Xrotation Yrotation Zrotation
				JOINT Spine1_split
				{
					OFFSET 0.000000 12.508769 -0.658067
					CHANNELS 3 Xrotation Yrotation Zrotation
					JOINT Spine2
					{
						OFFSET 0.000000 12.508769 -0.658067
						CHANNELS 3 Xrotation Yrotation Zrotation
						JOINT Neck_virtual
						{
							OFFSET 0.000000 0.000000 0.000000
							CHANNELS 3 Xrotation Yrotation Zrotation
							JOINT Neck
							{
								OFFSET 0.000000 14.033295 7.520400
								CHANNELS 3 Xrotation Yrotation Zrotation
								JOINT Head
								{
									OFFSET 0.000000 8.198502 5.703100
									CHANNELS 3 Xrotation Yrotation Zrotation
									JOINT HeadTop_End
									{
										OFFSET 0.000000 17.760803 13.332701
										CHANNELS 3 Xrotation Yrotation Zrotation
										End Site
										{
											OFFSET 0 0 0
										}
									}
								}
							}
						}
						JOINT LeftShoulder_virtual
						{
							OFFSET 0.000000 0.000000 0.000000
							CHANNELS 3 Xrotation Yrotation Zrotation
							JOINT LeftShoulder
							{
								OFFSET 6.292450 5.785301 -0.669000
								CHANNELS 3 Xrotation Yrotation Zrotation
								JOINT LeftShoulder_split
								{
									OFFSET 6.292450 5.785301 -0.669000
									CHANNELS 3 Xrotation Yrotation Zrotation
									JOINT LeftArm
									{
										OFFSET 13.907140 -6.093903 1.965100
										CHANNELS 3 Xrotation Yrotation Zrotation
										JOINT LeftForeArm
										{
											OFFSET 34.140198 0.000000 0.000000
											CHANNELS 3 Xrotation Yrotation Zrotation
											JOINT LeftHand
											{
												OFFSET 40.960209 0.000000 0.000000
												CHANNELS 3 Xrotation Yrotation Zrotation
												End Site
												{
													OFFSET 0 0 0
												}
											}
										}
									}
								}
							}
						}
						JOINT RightShoulder_virtual
						{
							OFFSET 0.000000 0.000000 0.000000
							CHANNELS 3 Xrotation Yrotation Zrotation
							JOINT RightShoulder
							{
								OFFSET -6.292450 5.785301 -0.669000
								CHANNELS 3 Xrotation Yrotation Zrotation
								JOINT RightShoulder_split
								{
									OFFSET -6.292450 5.785301 -0.669000
									CHANNELS 3 Xrotation Yrotation Zrotation
									JOINT RightArm
									{
										OFFSET -13.907140 -6.093903 1.965100
										CHANNELS 3 Xrotation Yrotation Zrotation
										JOINT RightForeArm
										{
											OFFSET -34.140198 0.000000 0.000000
											CHANNELS 3 Xrotation Yrotation Zrotation
											JOINT RightHand
											{
												OFFSET -40.960209 0.000000 0.000000
												CHANNELS 3 Xrotation Yrotation Zrotation
												End Site
												{
													OFFSET 0 0 0
												}
											}
										}
									}
								}
							}
						}
					}
				}
			}
		}
	}
}
MOTION
Frames: 8
Frame Time: 0.03333333
6.219772 97.774986 -11.474705 0.000000 0.000000 0.000000 44.736680 5.627643 -3.907663 -84.604187 7.288084 18.637976 39.783564 10.907282 -3.375975 4.169200 14.323383 -5.961530 0.058480 0.881639 -0.906005 0.000000 0.000000 0.000000 45.169417 4.889073 -1.823893 -49.836462 12.447277 -6.842512 66.194662 4.708168 -5.718976 15.269059 0.867177 15.853801 -39.234065 -1.281167 6.078929 0.000000 0.000000 0.000000 48.928784 -2.315626 1.417626 12.191238 0.382379 -2.938279 12.114746 1.780755 -0.738574 -0.076009 1.912679 1.228619 0.000000 0.000000 0.000000 27.061426 1.312077 -0.822263 -22.502663 -4.909639 5.994519 -18.661957 4.760416 -6.892763 0.000000 0.000000 0.000000 25.994513 2.318436 -0.298789 4.017354 -3.079297 6.539908 5.829908 -17.082015 -5.170191 -34.109927 -46.266329 -32.741529 2.546083 -47.480374 3.259137 0.000000 0.000000 0.000000 25.085325 1.033087 -0.075122 -2.228939 33.509485 10.991944 9.935771 10.893157 4.882297 -51.567512 23.147526 26.228017 2.386432 38.820429 -4.361575 0.000000 0.000000 0.000000 
6.011352 99.206535 -10.672810 0.000000 0.000000 0.000000 40.665024 3.820099 -2.844891 -79.671479 7.481195 17.653964 36.530317 11.391888 -3.430711 5.161062 14.975149 -6.894554 0.127590 0.932763 -0.905897 0.000000 0.000000 0.000000 40.960310 2.703715 -0.737967 -52.968291 12.346482 -6.417945 67.274966 4.188441 -5.238597 11.207100 -0.492715 12.990928 -30.662034 -0.576203 5.763087 0.000000 0.000000 0.000000 44.602911 -4.668463 2.115022 12.747327 0.311560 -2.986649 12.149030 1.744829 -0.528083 -0.144434 1.914115 1.164692 0.000000 0.000000 0.000000 26.973921 1.274056 -0.626084 -21.984564 -4.635921 5.902754 -17.997282 5.595898 -6.273179 0.000000 0.000000 0.000000 25.824291 2.233557 -0.116948 4.040874 -2.357499 5.237833 4.540150 -17.064410 -5.030770 -32.327470 -45.090006 -33.893028 2.264669 -47.029933 2.706618 0.000000 0.000000 0.000000 24.935006 1.018891 0.055105 -2.337753 32.489984 11.568438 10.725012 10.888936 5.628905 -49.904080 22.969836 28.924509 2.462107 37.252029 -4.903001 0.000000 0.000000 0.000000 
5.867376 100.518585 -9.803432 0.000000 0.000000 0.000000 36.585594 1.666695 -1.933109 -74.756461 7.723931 17.006539 33.577842 11.809130 -3.493671 5.918367 15.276638 -7.864980 0.024360 0.978977 -0.847860 0.000000 0.000000 0.000000 36.829469 0.010613 0.266036 -55.289531 12.220583 -6.438437 66.404889 3.702686 -4.734723 7.796382 -1.493177 10.719144 -22.713203 0.012253 5.481368 0.000000 0.000000 0.000000 40.401194 -7.003805 2.602743 13.116465 0.291760 -3.000989 12.120607 1.768264 -0.331206 -0.223750 1.848642 1.155394 0.000000 0.000000 0.000000 26.836039 1.297341 -0.476565 -21.428385 -4.328357 5.711901 -17.311324 6.371906 -5.783157 0.000000 0.000000 0.000000 25.597145 2.218921 0.066186 4.054350 -1.672594 3.927258 3.185184 -16.760167 -4.876627 -30.730175 -43.735125 -35.347834 1.873572 -45.809891 2.082221 0.000000 0.000000 0.000000 24.719170 1.073202 0.172076 -2.332188 31.383900 11.931829 11.420756 10.516526 6.178806 -48.231681 22.570205 31.263903 2.385005 35.500468 -5.293873 0.000000 0.000000 0.000000 
5.816343 101.730499 -8.899776 0.000000 0.000000 0.000000 32.733439 -0.473936 -1.362438 -69.958691 8.216138 16.773606 30.873435 12.263354 -3.560415 6.403172 15.337562 -8.578498 -0.034442 1.019557 -0.777506 0.000000 0.000000 0.000000 32.943761 -2.657354 0.883135 -56.389950 12.024362 -6.789131 63.742536 3.576565 -4.386884 5.231030 -1.723995 9.607716 -16.537915 0.462413 5.038772 0.000000 0.000000 0.000000 36.486792 -9.062237 2.785406 13.308677 0.312543 -2.990030 12.034399 1.848831 -0.127611 -0.233231 1.789726 1.160342 0.000000 0.000000 0.000000 26.628205 1.372003 -0.342082 -20.857268 -4.018412 5.461999 -16.455474 7.103631 -5.424208 0.000000 0.000000 0.000000 25.299849 2.263848 0.271261 4.061200 -1.066431 2.692258 2.055650 -16.463481 -4.668198 -29.318529 -42.335445 -37.063782 1.538386 -44.140466 1.535471 0.000000 0.000000 0.000000 24.435753 1.186713 0.295800 -2.220117 30.231018 12.085638 12.020412 9.802746 6.699918 -46.446369 21.876425 33.080020 2.187268 33.904373 -5.554347 0.000000 0.000000 0.000000 
5.771140 102.938339 -7.904942 0.000000 0.000000 0.000000 29.275796 -2.563290 -1.142140 -65.311170 8.958835 16.848958 28.284949 12.780905 -3.539494 6.562519 15.249697 -8.900584 0.051127 1.062456 -0.753597 0.000000 0.000000 0.000000 29.331278 -4.845074 1.013591 -56.137700 11.443349 -7.405359 59.858548 3.673903 -4.110831 3.437203 -1.271697 9.619665 -12.469913 0.780051 4.332641 0.000000 0.000000 0.000000 32.890113 -10.593964 2.578800 13.374826 0.334305 -2.945032 11.915108 1.958184 0.083345 -0.230184 1.647254 1.222933 0.000000 0.000000 0.000000 26.321985 1.457842 -0.204666 -20.301622 -3.709515 5.195211 -15.273001 7.750192 -5.176118 0.000000 0.000000 0.000000 24.908848 2.328364 0.493300 4.057090 -0.632048 1.571744 0.977736 -16.224360 -4.439311 -28.031088 -41.033079 -38.921235 1.368756 -42.324425 1.169767 0.000000 0.000000 0.000000 24.077452 1.325468 0.433828 -2.031415 29.062930 12.086343 12.729231 8.857868 7.244193 -44.679198 20.842321 34.441796 1.882548 32.732725 -5.711656 0.000000 0.000000 0.000000 
5.654674 104.118256 -6.802555 0.000000 0.000000 0.000000 26.152530 -4.340794 -1.250696 -60.695247 9.852020 16.991060 25.842673 13.212957 -3.340883 6.505522 14.971633 -9.030605 0.208247 1.110517 -0.772745 0.000000 0.000000 0.000000 25.902212 -6.309612 0.764193 -54.841252 10.544330 -8.126965 55.133321 3.944535 -3.850922 2.079953 -0.448721 10.451242 -9.850115 0.965728 3.441631 0.000000 0.000000 0.000000 29.504068 -11.570071 2.035823 13.352100 0.314715 -2.878248 11.784880 2.044541 0.289242 -0.207210 1.522104 1.239768 0.000000 0.000000 0.000000 25.926123 1.509115 -0.062359 -19.805284 -3.388776 4.950245 -13.698731 8.311773 -4.984494 0.000000 0.000000 0.000000 24.449839 2.354247 0.727684 4.040010 -0.380661 0.625372 -0.003784 -16.020798 -4.250616 -26.810571 -39.850121 -40.759833 1.381694 -40.528594 0.996595 0.000000 0.000000 0.000000 23.650730 1.428841 0.584002 -1.793930 27.882099 11.938828 13.567449 8.020667 7.913921 -43.046058 19.542232 35.469582 1.523429 31.995765 -5.804164 0.000000 0.000000 0.000000 
5.520349 105.270798 -5.616119 0.000000 0.000000 0.000000 23.236573 -5.816435 -1.528557 -56.035101 10.781108 16.928713 23.663539 13.308099 -2.922533 6.418827 14.406013 -9.276544 0.321300 1.167341 -0.806037 0.000000 0.000000 0.000000 22.589121 -7.054293 0.282762 -52.664020 9.422119 -8.918027 50.073411 4.302789 -3.623660 1.176526 0.434532 11.615881 -8.124492 1.051809 2.505239 0.000000 0.000000 0.000000 26.170211 -11.987206 1.246015 13.282875 0.217811 -2.816083 11.652327 2.063625 0.467157 -0.171812 1.504808 1.194409 0.000000 0.000000 0.000000 25.447150 1.481527 0.082125 -19.338911 -3.048466 4.770703 -11.752689 8.776885 -4.801766 0.000000 0.000000 0.000000 23.952336 2.298311 0.949616 4.003547 -0.313458 -0.113977 -0.951193 -15.749851 -4.146296 -25.610250 -38.802554 -42.417049 1.566163 -38.817878 0.985803 0.000000 0.000000 0.000000 23.153682 1.438222 0.720941 -1.528849 26.665492 11.650844 14.410251 7.381726 8.668057 -41.704428 18.143873 36.395940 1.139888 31.629380 -5.852235 0.000000 0.000000 0.000000 
5.324073 106.387161 -4.440090 0.000000 0.000000 0.000000 20.392575 -7.003670 -1.873072 -51.398458 11.604655 16.536971 21.841854 12.968909 -2.304652 6.428339 13.522163 -9.804182 0.343069 1.227278 -0.821917 0.000000 0.000000 0.000000 19.406275 -7.342186 -0.207566 -50.025723 8.211411 -9.715488 44.988701 4.531574 -3.362767 0.948601 0.961820 12.798756 -7.042673 1.030828 1.737646 0.000000 0.000000 0.000000 22.833094 -12.005394 0.347094 13.168245 0.023807 -2.749575 11.524799 1.993046 0.599196 -0.156160 1.610871 1.150525 0.000000 0.000000 0.000000 24.894079 1.353877 0.208305 -18.858656 -2.704971 4.690163 -9.567889 9.093226 -4.585887 0.000000 0.000000 0.000000 23.428826 2.139314 1.143281 3.945428 -0.421926 -0.669580 -1.781760 -15.496304 -4.065228 -24.360204 -37.866347 -43.732820 1.803214 -37.267766 1.044441 0.000000 0.000000 0.000000 22.596007 1.333686 0.834587 -1.276870 25.428004 11.319737 15.173600 6.966621 9.468239 -40.728066 16.751744 37.404701 0.763906 31.489689 -5.871527 0.000000 0.000000 0.000000 
